<svg width="221" height="37" viewBox="0 0 221 37" fill="none" xmlns="http://www.w3.org/2000/svg">
	<g class="logo">
		<path class="marker" d="M17.383 10.8899C14.1354 11.712 11.3295 14.6117 10.6288 17.8577C10.3537 19.1992 10.522 21.6232 11.0091 23.1329C12.0301 26.2884 15.2778 31.5328 18.3588 35.0248C19.5934 36.4262 19.7455 36.397 21.3621 34.4148C24.7602 30.2982 27.2457 26.1816 28.2522 23.0261C29.3963 19.4662 28.6487 15.8755 26.2101 13.4207C24.38 11.5598 22.6421 10.8317 19.943 10.7362C18.807 10.7071 17.9154 10.7524 17.383 10.8899ZM21.5579 15.6311C22.5856 16.1124 23.4075 16.9451 23.8751 17.9791C24.1987 18.6798 24.2408 18.9387 24.1809 20.0374C24.1049 21.4549 23.799 22.1718 22.8993 23.0553C19.9867 25.968 15.0173 23.9404 15.0173 19.8384C15.0189 16.424 18.4187 14.2282 21.5579 15.6311Z" fill="#303030"></path>
		<g class="stars">
			<path id="Vector" fill-rule="evenodd" clip-rule="evenodd" d="M15.3247 0.109707C15.2939 0.187379 15.1402 0.756972 14.9881 1.37511C14.836 1.99325 14.6386 2.59035 14.5463 2.68744C14.4541 2.78453 13.8991 3.05314 13.2809 3.28131C12.2129 3.69394 11.9395 3.92857 12.1369 4.22631C12.5227 4.52357 12.9252 4.79857 13.3424 5.04996L14.4557 5.72149V6.78786C14.4557 8.80086 14.6677 8.9384 15.9638 7.80892C16.2909 7.5072 16.6374 7.2272 17.0011 6.97072C17.1079 6.91084 17.7325 6.9869 18.404 7.16975C19.0756 7.3526 19.684 7.47396 19.7601 7.47396C20.0966 7.47396 20.0351 7.01764 19.5626 5.84286L19.0594 4.6082L19.7293 3.57096C20.3863 2.53533 20.5222 2.07739 20.2633 1.92529C20.2034 1.87836 19.5465 1.89454 18.8312 1.95441L17.5189 2.07739L16.6661 1.04015C15.904 0.0951435 15.4913 -0.179944 15.3247 0.109707Z" fill="#DB2827"></path>
			<path id="Vector_2" fill-rule="evenodd" clip-rule="evenodd" d="M5.62701 4.0743C5.5364 4.39794 5.39885 5.01931 5.30338 5.44651L5.12053 6.23941L3.84056 6.74265C2.20945 7.3527 2.19327 7.5663 3.71758 8.49512L4.81631 9.1521L4.92311 10.5389C5.07522 12.4451 5.10597 12.4451 6.90536 10.9208L7.59146 10.3253L8.87467 10.6813C10.1093 11.0162 10.4928 11.0049 10.4928 10.6505C10.3689 10.187 10.211 9.73319 10.0203 9.29288L9.53488 8.11971L10.2614 6.95949C11.2081 5.44974 11.132 5.32838 9.29053 5.44974L7.94908 5.54198L7.14 4.5193C6.18528 3.34289 5.84061 3.25066 5.62701 4.0743Z" fill="#DB2827"></path>
			<path id="Vector_3" fill-rule="evenodd" clip-rule="evenodd" d="M27.8411 4.19555C27.2763 4.57744 26.744 4.88165 26.6663 4.88165C26.2136 4.7565 25.7707 4.59859 25.341 4.40915C23.739 3.78454 23.6322 3.89134 24.1355 5.62925L24.5174 6.91083L23.6792 7.93027C23.2212 8.49339 22.8409 9.02739 22.8409 9.13419C22.8409 9.42384 23.5562 9.60669 24.6695 9.60669H25.7213L26.4236 10.7507C27.3686 12.2605 27.5369 12.2443 28.1615 10.5986C28.6469 9.33322 28.6647 9.30409 29.2942 9.14228C31.7942 8.4853 31.825 8.43999 30.3314 7.25064L29.2634 6.39787L29.2942 4.99493C29.3249 3.28129 29.2586 3.2376 27.8411 4.19555Z" fill="#DB2827"></path>
			<path id="Vector_4" fill-rule="evenodd" clip-rule="evenodd" d="M3.24837 13.2977C3.20306 13.4045 3.02021 13.9692 2.82279 14.5485L2.47165 15.6165L1.25156 16.0114C0.474837 16.2719 0.0363151 16.5146 0.00233365 16.6683C-0.0316478 16.8221 0.306548 17.1716 0.947341 17.6279L1.95384 18.3593V19.5341C1.95384 20.8286 2.04446 21.196 2.33411 21.196C2.4409 21.196 2.98946 20.861 3.5542 20.4484L4.57526 19.7024L5.65781 20.0665C7.47177 20.6765 7.53326 20.615 6.92322 18.7849L6.55751 17.704L7.3051 16.7136C7.71611 16.1651 8.05107 15.6165 8.05107 15.4935C8.05107 15.1586 7.44103 15.0518 6.31317 15.1699L5.3536 15.2622L4.56717 14.1974C3.81311 13.1618 3.40209 12.8867 3.24837 13.2977Z" fill="#DB2827"></path>
			<path id="Vector_5" fill-rule="evenodd" clip-rule="evenodd" d="M7.77732 24.0925C7.27408 24.5035 6.78539 24.8547 6.67859 24.8547C6.23586 24.7672 5.79829 24.6554 5.36788 24.5197C3.82739 24.078 3.73677 24.1847 4.36138 25.7705L4.84683 27.0052L4.14455 28.057C3.17365 29.5134 3.24485 29.6428 4.92289 29.5506L6.21742 29.46L7.05562 30.5118C8.19966 31.9147 8.24497 31.8985 8.80809 29.5813C8.96991 28.8952 8.96991 28.8952 10.2272 28.4373C11.0363 28.1476 11.4764 27.8887 11.4764 27.7512C11.4764 27.6136 11.0039 27.2026 10.4101 26.8062L9.34209 26.0893L9.26603 24.7479C9.18027 23.086 9.04273 23.0261 7.77732 24.0925Z" fill="#DB2827"></path>
		</g>
	</g>
	<g class="wordmark">
		<path class="name" d="M47.2365 22.157C47.2365 22.857 47.0685 23.508 46.7325 24.11C46.3965 24.712 45.8855 25.202 45.1995 25.58C44.5135 25.958 43.6665 26.147 42.6585 26.147C41.6785 26.147 40.8035 25.972 40.0335 25.622C39.2775 25.258 38.6685 24.768 38.2065 24.152C37.7585 23.522 37.4995 22.808 37.4295 22.01H39.4665C39.5085 22.43 39.6485 22.843 39.8865 23.249C40.1385 23.641 40.4885 23.97 40.9365 24.236C41.3985 24.488 41.9515 24.614 42.5955 24.614C43.4355 24.614 44.0795 24.39 44.5275 23.942C44.9755 23.494 45.1995 22.92 45.1995 22.22C45.1995 21.618 45.0385 21.128 44.7165 20.75C44.4085 20.372 44.0235 20.078 43.5615 19.868C43.0995 19.644 42.4695 19.406 41.6715 19.154C40.7335 18.846 39.9775 18.559 39.4035 18.293C38.8435 18.013 38.3605 17.6 37.9545 17.054C37.5625 16.508 37.3665 15.787 37.3665 14.891C37.3665 14.121 37.5485 13.442 37.9125 12.854C38.2905 12.266 38.8225 11.811 39.5085 11.489C40.2085 11.167 41.0275 11.006 41.9655 11.006C43.4215 11.006 44.5765 11.363 45.4305 12.077C46.2845 12.777 46.7815 13.673 46.9215 14.765H44.8635C44.7515 14.177 44.4505 13.659 43.9605 13.211C43.4705 12.763 42.8055 12.539 41.9655 12.539C41.1955 12.539 40.5795 12.742 40.1175 13.148C39.6555 13.54 39.4245 14.1 39.4245 14.828C39.4245 15.402 39.5715 15.871 39.8655 16.235C40.1735 16.585 40.5515 16.865 40.9995 17.075C41.4475 17.271 42.0635 17.495 42.8475 17.747C43.7995 18.055 44.5625 18.349 45.1365 18.629C45.7245 18.909 46.2215 19.336 46.6275 19.91C47.0335 20.47 47.2365 21.219 47.2365 22.157ZM54.5311 14.324C55.6511 14.324 56.5961 14.604 57.3661 15.164C58.1501 15.724 58.6961 16.473 59.0041 17.411V14.471H60.9151V26H59.0041V23.06C58.6961 23.998 58.1501 24.747 57.3661 25.307C56.5961 25.867 55.6511 26.147 54.5311 26.147C53.5091 26.147 52.5991 25.909 51.8011 25.433C51.0031 24.957 50.3731 24.278 49.9111 23.396C49.4631 22.5 49.2391 21.45 49.2391 20.246C49.2391 19.042 49.4631 17.992 49.9111 17.096C50.3731 16.2 51.0031 15.514 51.8011 15.038C52.5991 14.562 53.5091 14.324 54.5311 14.324ZM55.0771 16.025C53.9011 16.025 52.9561 16.403 52.2421 17.159C51.5421 17.901 51.1921 18.93 51.1921 20.246C51.1921 21.562 51.5421 22.598 52.2421 23.354C52.9561 24.096 53.9011 24.467 55.0771 24.467C55.8331 24.467 56.5051 24.292 57.0931 23.942C57.6951 23.592 58.1641 23.102 58.5001 22.472C58.8361 21.828 59.0041 21.086 59.0041 20.246C59.0041 19.406 58.8361 18.664 58.5001 18.02C58.1641 17.376 57.6951 16.886 57.0931 16.55C56.5051 16.2 55.8331 16.025 55.0771 16.025ZM65.8675 10.46V26H63.9565V10.46H65.8675ZM74.1689 14.324C75.2749 14.324 76.2619 14.562 77.1299 15.038C78.0119 15.514 78.6979 16.2 79.1879 17.096C79.6919 17.992 79.9439 19.042 79.9439 20.246C79.9439 21.45 79.6919 22.5 79.1879 23.396C78.6979 24.278 78.0119 24.957 77.1299 25.433C76.2619 25.909 75.2749 26.147 74.1689 26.147C73.0629 26.147 72.0689 25.909 71.1869 25.433C70.3189 24.957 69.6329 24.278 69.1289 23.396C68.6249 22.5 68.3729 21.45 68.3729 20.246C68.3729 19.042 68.6249 17.992 69.1289 17.096C69.6329 16.2 70.3189 15.514 71.1869 15.038C72.0689 14.562 73.0629 14.324 74.1689 14.324ZM74.1689 16.004C73.4829 16.004 72.8459 16.158 72.2579 16.466C71.6839 16.774 71.2149 17.25 70.8509 17.894C70.5009 18.524 70.3259 19.308 70.3259 20.246C70.3259 21.17 70.5009 21.954 70.8509 22.598C71.2149 23.228 71.6839 23.697 72.2579 24.005C72.8459 24.313 73.4829 24.467 74.1689 24.467C74.8549 24.467 75.4849 24.313 76.0589 24.005C76.6469 23.697 77.1159 23.228 77.4659 22.598C77.8299 21.954 78.0119 21.17 78.0119 20.246C78.0119 19.308 77.8299 18.524 77.4659 17.894C77.1159 17.25 76.6469 16.774 76.0589 16.466C75.4849 16.158 74.8549 16.004 74.1689 16.004ZM88.503 14.282C89.847 14.282 90.932 14.716 91.758 15.584C92.584 16.438 92.997 17.677 92.997 19.301V26H91.086V19.469C91.086 18.321 90.792 17.439 90.204 16.823C89.616 16.207 88.818 15.899 87.81 15.899C86.76 15.899 85.92 16.242 85.29 16.928C84.66 17.6 84.345 18.587 84.345 19.889V26H82.434V14.471H84.345V17.201C84.639 16.263 85.157 15.542 85.899 15.038C86.655 14.534 87.523 14.282 88.503 14.282ZM98.7001 13.526V17.369H103.95V19.637H98.7001V23.627H104.58V26H95.7391V11.174H104.58V13.526H98.7001ZM111.833 23.039L114.773 14.366H117.923L113.618 26H110.006L105.701 14.366H108.872L111.833 23.039ZM130.51 19.742C130.51 20.036 130.475 20.372 130.405 20.75H121.879C121.921 21.786 122.201 22.549 122.719 23.039C123.237 23.529 123.881 23.774 124.651 23.774C125.337 23.774 125.904 23.606 126.352 23.27C126.814 22.934 127.108 22.479 127.234 21.905H130.363C130.209 22.717 129.88 23.445 129.376 24.089C128.872 24.733 128.221 25.237 127.423 25.601C126.639 25.965 125.764 26.147 124.798 26.147C123.664 26.147 122.656 25.909 121.774 25.433C120.892 24.943 120.206 24.25 119.716 23.354C119.226 22.458 118.981 21.401 118.981 20.183C118.981 18.965 119.226 17.908 119.716 17.012C120.206 16.102 120.892 15.409 121.774 14.933C122.656 14.457 123.664 14.219 124.798 14.219C125.946 14.219 126.947 14.457 127.801 14.933C128.669 15.409 129.334 16.067 129.796 16.907C130.272 17.733 130.51 18.678 130.51 19.742ZM127.528 19.448C127.57 18.496 127.318 17.775 126.772 17.285C126.24 16.795 125.582 16.55 124.798 16.55C124 16.55 123.328 16.795 122.782 17.285C122.236 17.775 121.935 18.496 121.879 19.448H127.528ZM135.573 16.592C136.007 15.85 136.581 15.269 137.295 14.849C138.009 14.415 138.807 14.198 139.689 14.198V17.369H138.828C136.658 17.369 135.573 18.377 135.573 20.393V26H132.612V14.366H135.573V16.592ZM143.323 14.366L146.494 22.262L149.434 14.366H152.689L145.57 31.544H142.294L144.919 25.664L140.026 14.366H143.323ZM170.737 14.366L167.608 26H164.332L161.833 17.537L159.271 26H155.995L152.887 14.366H155.848L157.738 23.354L160.321 14.366H163.45L166.054 23.354L167.965 14.366H170.737ZM179.143 14.198C180.487 14.198 181.558 14.639 182.356 15.521C183.154 16.403 183.553 17.642 183.553 19.238V26H180.613V19.574C180.613 18.65 180.375 17.936 179.899 17.432C179.423 16.914 178.772 16.655 177.946 16.655C177.106 16.655 176.434 16.928 175.93 17.474C175.426 18.02 175.174 18.804 175.174 19.826V26H172.213V10.46H175.174V16.697C175.482 15.913 175.986 15.304 176.686 14.87C177.4 14.422 178.219 14.198 179.143 14.198ZM197.099 19.742C197.099 20.036 197.064 20.372 196.994 20.75H188.468C188.51 21.786 188.79 22.549 189.308 23.039C189.826 23.529 190.47 23.774 191.24 23.774C191.926 23.774 192.493 23.606 192.941 23.27C193.403 22.934 193.697 22.479 193.823 21.905H196.952C196.798 22.717 196.469 23.445 195.965 24.089C195.461 24.733 194.81 25.237 194.012 25.601C193.228 25.965 192.353 26.147 191.387 26.147C190.253 26.147 189.245 25.909 188.363 25.433C187.481 24.943 186.795 24.25 186.305 23.354C185.815 22.458 185.57 21.401 185.57 20.183C185.57 18.965 185.815 17.908 186.305 17.012C186.795 16.102 187.481 15.409 188.363 14.933C189.245 14.457 190.253 14.219 191.387 14.219C192.535 14.219 193.536 14.457 194.39 14.933C195.258 15.409 195.923 16.067 196.385 16.907C196.861 17.733 197.099 18.678 197.099 19.742ZM194.117 19.448C194.159 18.496 193.907 17.775 193.361 17.285C192.829 16.795 192.171 16.55 191.387 16.55C190.589 16.55 189.917 16.795 189.371 17.285C188.825 17.775 188.524 18.496 188.468 19.448H194.117ZM202.162 16.592C202.596 15.85 203.17 15.269 203.884 14.849C204.598 14.415 205.396 14.198 206.278 14.198V17.369H205.417C203.247 17.369 202.162 18.377 202.162 20.393V26H199.201V14.366H202.162V16.592ZM218.858 19.742C218.858 20.036 218.823 20.372 218.753 20.75H210.227C210.269 21.786 210.549 22.549 211.067 23.039C211.585 23.529 212.229 23.774 212.999 23.774C213.685 23.774 214.252 23.606 214.7 23.27C215.162 22.934 215.456 22.479 215.582 21.905H218.711C218.557 22.717 218.228 23.445 217.724 24.089C217.22 24.733 216.569 25.237 215.771 25.601C214.987 25.965 214.112 26.147 213.146 26.147C212.012 26.147 211.004 25.909 210.122 25.433C209.24 24.943 208.554 24.25 208.064 23.354C207.574 22.458 207.329 21.401 207.329 20.183C207.329 18.965 207.574 17.908 208.064 17.012C208.554 16.102 209.24 15.409 210.122 14.933C211.004 14.457 212.012 14.219 213.146 14.219C214.294 14.219 215.295 14.457 216.149 14.933C217.017 15.409 217.682 16.067 218.144 16.907C218.62 17.733 218.858 18.678 218.858 19.742ZM215.876 19.448C215.918 18.496 215.666 17.775 215.12 17.285C214.588 16.795 213.93 16.55 213.146 16.55C212.348 16.55 211.676 16.795 211.13 17.285C210.584 17.775 210.283 18.496 210.227 19.448H215.876Z" fill="black"></path>
	</g>
</svg>